<svg width="64" height="64" viewBox="0 0 64 64" fill="none" role="img" xmlns="http://www.w3.org/2000/svg">
  <title>HowlBox</title>
  <defs>
    <linearGradient id="bg" x1="0" y1="0" x2="64" y2="64" gradientUnits="userSpaceOnUse">
      <stop stop-color="#0b1c44"/>
      <stop offset="1" stop-color="#040713"/>
    </linearGradient>
    <linearGradient id="mark" x1="16" y1="12" x2="48" y2="52" gradientUnits="userSpaceOnUse">
      <stop stop-color="#33c1f5"/>
      <stop offset="1" stop-color="#00ACED"/>
    </linearGradient>
  </defs>
  <rect width="64" height="64" rx="15" fill="url(#bg)"/>
  <rect x="0.75" y="0.75" width="62.5" height="62.5" rx="14.25" stroke="#00ACED" stroke-opacity="0.35" stroke-width="1.5"/>
  <!-- paw: main pad + four toes -->
  <g fill="url(#mark)">
    <path d="M32 33c-6.6 0-12 4.3-12 9.6 0 3.6 2.8 5.4 6.2 5.4 2.2 0 3.9-1 5.8-1s3.6 1 5.8 1c3.4 0 6.2-1.8 6.2-5.4C44 37.3 38.6 33 32 33Z"/>
    <ellipse cx="20.5" cy="28" rx="4" ry="5.2"/>
    <ellipse cx="43.5" cy="28" rx="4" ry="5.2"/>
    <ellipse cx="27" cy="21.5" rx="3.6" ry="4.8"/>
    <ellipse cx="37" cy="21.5" rx="3.6" ry="4.8"/>
  </g>
</svg>
